<svg xmlns="http://www.w3.org/2000/svg" viewBox="0 0 120 96" role="img" aria-label="DiabCare">
  <defs>
    <linearGradient id="g-cyan" x1="20%" y1="0%" x2="80%" y2="100%">
      <stop offset="0%" stop-color="#7dd3fc"/>
      <stop offset="55%" stop-color="#22d3ee"/>
      <stop offset="100%" stop-color="#0e7490"/>
    </linearGradient>
    <linearGradient id="g-silver" x1="30%" y1="0%" x2="70%" y2="100%">
      <stop offset="0%" stop-color="#fafafa"/>
      <stop offset="100%" stop-color="#9ca3af"/>
    </linearGradient>
  </defs>
  <!-- Gota: mitad cyan / mitad plata -->
  <path fill="url(#g-cyan)" d="M60 10 C44 28 40 44 46 56 C50 64 58 68 60 68 C60 68 60 36 60 10 Z"/>
  <path fill="url(#g-silver)" d="M60 10 C76 28 80 44 74 56 C70 64 62 68 60 68 C60 68 60 36 60 10 Z"/>
  <!-- Pulso ECG -->
  <polyline fill="none" stroke="#22d3ee" stroke-width="4.2" stroke-linecap="round" stroke-linejoin="round"
    points="14,74 32,74 38,54 46,86 52,74 68,74"/>
  <!-- Cruz médica -->
  <rect x="82" y="58" width="12" height="32" rx="1" fill="#22d3ee"/>
  <rect x="72" y="68" width="32" height="12" rx="1" fill="#22d3ee"/>
</svg>
